<svg xmlns="http://www.w3.org/2000/svg" xmlns:xlink="http://www.w3.org/1999/xlink" width="168" height="50" viewBox="0 0 168 50">
    <defs>
        <path id="a" d="M0 50h37.472V.108H0z"/>
    </defs>
    <g fill="none" fill-rule="evenodd">
        <g>
            <mask id="b" fill="#fff">
                <use xlink:href="#a"/>
            </mask>
            <path fill="#03A65A" d="M9.62 18.106c-.047.062-.086.125-.137.177l-2.075 2.072c-1.354 1.352-1.36 3.22-.009 4.57 3.708 3.705 7.42 7.405 11.123 11.113.163.163.241.174.41.004a422.232 422.232 0 0 1 4.085-4.077c.212-.208.219-.308.003-.523-4.379-4.357-8.748-8.723-13.12-13.087-.051-.051-.102-.104-.155-.153-.029-.027-.063-.049-.125-.096zM18.86.108c.226.229.45.46.678.687l15.075 15.05c2.048 2.047 3.008 4.523 2.84 7.406-.135 2.325-1.025 4.351-2.674 6.006-4.197 4.213-8.412 8.408-12.625 12.605a.69.69 0 0 0-.23.54c.009 2.43.002 4.861.012 7.292 0 .249-.07.306-.31.305-1.925-.01-3.85-.012-5.775.001-.27.002-.318-.079-.317-.33.01-2.42.003-4.84.01-7.26a.66.66 0 0 0-.213-.517C11.2 37.777 7.078 33.65 2.943 29.537 1.397 28 .42 26.186.088 24.028c-.025-.16.017-.334-.088-.479v-1.808c.066-.054.05-.132.058-.202.256-2.133 1.12-3.984 2.626-5.517 1.524-1.549 3.073-3.073 4.61-4.608 1.387-1.384 3.339-1.387 4.721-.007l10.53 10.512c1.684 1.682 3.372 3.361 5.05 5.05.174.176.262.166.429-.004.703-.722 1.422-1.43 2.137-2.141a3.09 3.09 0 0 0 .495-.639c.716-1.229.492-2.744-.561-3.795-5.194-5.187-10.388-10.373-15.588-15.554-.168-.167-.182-.254-.004-.427.798-.775 1.58-1.565 2.366-2.353.645-.647 1.286-1.299 1.928-1.948h.062z" mask="url(#b)"/>
        </g>
        <g fill="#E6E6E6">
            <path d="M51.305 25.197c-.002.718.089 1.42.346 2.092.725 1.89 2.107 2.996 4.127 3.18 2.028.185 3.698-.527 4.767-2.32.824-1.384.9-2.91.563-4.432-.954-4.297-5.586-4.702-7.864-2.85-1.376 1.12-1.92 2.61-1.94 4.33m10.318-7.362c0-.752.01-1.43-.005-2.106-.005-.22.06-.27.276-.27 1.454.01 2.908.012 4.362 0 .243-.002.285.073.285.296-.006 6.28-.006 12.559.001 18.838 0 .241-.073.286-.298.284-1.474-.01-2.95-.01-4.424 0-.219.001-.28-.057-.275-.273.015-.616.005-1.232.005-1.844-.08-.037-.106.02-.137.054-1.459 1.663-3.352 2.394-5.521 2.509-2.254.119-4.315-.44-6.129-1.796-1.998-1.495-3.16-3.522-3.638-5.925-.502-2.528-.305-5.01.857-7.35 1.605-3.23 4.237-4.977 7.865-5.195 1.766-.106 3.447.218 4.978 1.147.68.412 1.254.945 1.798 1.63M75.978 17.507c.821-.917 1.753-1.615 2.882-2.027a7.019 7.019 0 0 1 3.962-.278c.191.041.263.117.26.33-.011 1.41-.01 2.822 0 4.233 0 .203-.049.262-.257.262-.956-.004-1.914-.049-2.859.185-2.147.53-3.424 2.042-3.514 4.253-.091 2.246-.02 4.494-.035 6.74-.007 1.15-.006 2.3.003 3.45.002.215-.026.31-.28.307-1.605-.013-3.21-.01-4.815-.001-.223.001-.272-.064-.272-.28.005-6.376.005-12.754 0-19.131 0-.211.042-.284.27-.282 1.458.01 2.917.012 4.376-.002.251-.002.288.086.284.305-.013.645-.005 1.29-.005 1.936M90.61 25.196c-.007.36.039.812.12 1.262.368 2.035 1.81 3.518 3.802 3.905 2.104.408 4.134-.449 5.216-2.203.726-1.178.919-2.463.784-3.82-.244-2.464-1.855-4.246-4.293-4.573-1.872-.25-3.493.322-4.647 1.896-.745 1.015-.985 2.195-.982 3.533m-.362 7.304c0 .764-.01 1.425.006 2.087.005.221-.062.274-.277.272-1.434-.01-2.867-.014-4.3.003-.28.003-.339-.072-.339-.343.008-8.96.007-17.921.007-26.882 0-.706.008-1.412-.005-2.118-.004-.208.06-.255.26-.254 1.61.008 3.22.01 4.83-.002.236-.002.26.083.259.283-.006 3.8-.004 7.6-.004 11.401v.167c.031-.004.069.003.083-.012 1.224-1.298 2.759-1.953 4.505-2.15 2.29-.257 4.443.148 6.385 1.435 2.107 1.395 3.388 3.379 3.981 5.805.634 2.595.49 5.151-.613 7.605-1.366 3.044-3.702 4.9-7.01 5.41-2.28.35-4.467.033-6.402-1.351-.5-.358-.93-.792-1.366-1.356M123.858 25.417c-.027-1.275-.245-2.097-.673-2.912-1.742-3.314-6.54-3.56-8.577-.438-.813 1.246-1.002 2.628-.796 4.067.579 4.049 4.694 5.18 7.394 3.7 1.889-1.035 2.623-2.746 2.652-4.417m-5.076 9.921c-4.176-.204-7.472-1.892-9.43-5.677-1.96-3.787-1.2-8.508 1.822-11.526 1.913-1.912 4.263-2.943 6.985-3.08 3.165-.16 5.938.812 8.193 3.023 2.271 2.227 3.213 4.969 2.92 8.126-.404 4.333-3.73 8.06-8.494 8.94-.655.121-1.32.165-1.996.194M137.24 17.589c.388-.435.733-.822 1.147-1.136 1.696-1.286 3.593-1.66 5.665-1.265.244.046.308.15.306.392-.012 1.37-.016 2.74.003 4.11.004.295-.092.337-.351.333-1.03-.015-2.061-.04-3.068.261-1.91.573-3.073 2.018-3.215 4.016-.034.49-.051.98-.051 1.471.003 2.96-.001 5.919.006 8.878.001.238-.048.315-.302.313-1.585-.013-3.17-.011-4.754 0-.23.001-.295-.051-.295-.29.007-6.369.008-12.737 0-19.105 0-.253.072-.307.311-.305 1.439.011 2.878.012 4.316-.001.246-.002.292.073.287.3-.016.653-.006 1.307-.006 2.028M145.913 15.469c1.878 0 3.705.005 5.532-.006.23-.002.245.147.296.283 1.173 3.153 2.343 6.306 3.515 9.46.352.947.705 1.895 1.059 2.842.017.046.01.106.105.133.281-.7.564-1.402.845-2.105 1.378-3.45 2.756-6.9 4.132-10.351.06-.15.097-.264.312-.262 1.776.01 3.55.006 5.326.006.038 0 .075.005.152.01-.326.732-.64 1.436-.952 2.14-2.822 6.349-5.644 12.697-8.467 19.044-.548 1.234-1.218 2.395-2.123 3.412-1.424 1.6-3.234 2.344-5.363 2.402-1.209.032-2.39-.15-3.566-.4-.187-.04-.241-.119-.24-.307.009-1.314.013-2.628-.002-3.942-.004-.26.08-.271.3-.248.985.104 1.969.197 2.962.062 1.34-.183 2.285-.887 2.875-2.075.267-.537.507-1.086.77-1.624.063-.13.034-.232-.014-.348-1.495-3.626-2.99-7.252-4.482-10.878-.955-2.32-1.907-4.639-2.86-6.958-.035-.084-.066-.17-.112-.29"/>
        </g>
    </g>
</svg>
