<svg width="287" height="86" xmlns="http://www.w3.org/2000/svg" xmlns:xlink="http://www.w3.org/1999/xlink"><defs><path id="a" d="M0 85.714h64.238V.185H0z"/></defs><g fill="none" fill-rule="evenodd"><mask id="b" fill="#fff"><use xlink:href="#a"/></mask><path d="M16.491 31.039c-.08.106-.147.214-.234.303l-3.558 3.552c-2.32 2.318-2.331 5.52-.015 7.835 6.357 6.351 12.72 12.694 19.068 19.05.28.28.413.299.703.007a723.826 723.826 0 0 1 7.003-6.989c.363-.356.375-.528.005-.896-7.507-7.47-14.997-14.954-22.492-22.435-.087-.088-.174-.179-.265-.263-.05-.046-.108-.084-.215-.164zM32.331.185c.388.393.772.789 1.163 1.178l25.843 25.8c3.51 3.509 5.156 7.754 4.868 12.696-.231 3.986-1.757 7.459-4.584 10.296-7.195 7.222-14.42 14.414-21.643 21.608a1.183 1.183 0 0 0-.394.926c.015 4.166.003 8.333.02 12.5 0 .428-.12.525-.53.524-3.3-.018-6.6-.021-9.9.001-.464.004-.546-.135-.544-.565.017-4.149.005-8.298.017-12.446a1.131 1.131 0 0 0-.365-.886C19.2 64.76 12.134 57.686 5.045 50.635 2.395 48 .72 44.89.151 41.19c-.043-.274.029-.573-.151-.821v-3.1c.113-.092.086-.226.1-.346.438-3.657 1.92-6.83 4.501-9.458 2.613-2.655 5.268-5.268 7.903-7.9 2.378-2.372 5.724-2.377 8.093-.011l18.052 18.02c2.886 2.884 5.78 5.762 8.657 8.658.298.301.449.284.735-.007 1.205-1.238 2.438-2.452 3.664-3.67.33-.327.614-.695.848-1.096 1.228-2.107.844-4.704-.962-6.506A32655.769 32655.769 0 0 0 24.87 8.29c-.288-.286-.312-.435-.007-.732 1.368-1.328 2.709-2.683 4.056-4.033 1.106-1.11 2.205-2.227 3.305-3.34h.108z" fill="#03A65A" fill-rule="nonzero" mask="url(#b)"/><g fill-rule="nonzero" fill="#E6E6E6"><path d="M87.951 43.195c-.003 1.23.153 2.434.594 3.586 1.242 3.24 3.612 5.136 7.074 5.452 3.477.317 6.34-.904 8.172-3.978 1.413-2.372 1.543-4.988.966-7.597-1.636-7.367-9.576-8.06-13.482-4.886-2.358 1.92-3.291 4.474-3.325 7.423m17.688-12.62c0-1.29.017-2.452-.009-3.611-.008-.377.103-.463.473-.463 2.493.017 4.985.02 7.478 0 .417-.003.489.125.489.508-.01 10.765-.01 21.53.001 32.293 0 .413-.125.49-.51.487a559.199 559.199 0 0 0-7.585 0c-.375.002-.48-.098-.471-.468.026-1.056.009-2.112.009-3.161-.138-.063-.182.034-.235.093-2.501 2.85-5.747 4.104-9.465 4.3-3.864.205-7.397-.754-10.507-3.078-3.425-2.563-5.417-6.038-6.236-10.157-.86-4.334-.523-8.589 1.469-12.6 2.751-5.537 7.263-8.532 13.483-8.906 3.027-.182 5.909.374 8.533 1.966 1.166.707 2.15 1.62 3.083 2.795m24.61-.561c1.407-1.572 3.005-2.769 4.94-3.475 2.171-.81 4.53-.975 6.793-.476.327.07.45.2.445.565a487.578 487.578 0 0 0 0 7.257c0 .348-.084.449-.44.449-1.64-.007-3.281-.084-4.901.317-3.681.909-5.87 3.5-6.024 7.291-.156 3.85-.035 7.704-.06 11.554-.012 1.972-.01 3.943.005 5.915.003.368-.045.531-.48.526a602.195 602.195 0 0 0-8.255-.002c-.382.002-.466-.11-.466-.48.009-10.93.009-21.864 0-32.796 0-.362.072-.487.463-.483 2.5.017 5 .02 7.502-.004.43-.003.493.148.487.523-.023 1.106-.009 2.212-.009 3.319m25.083 13.181c-.012.617.067 1.392.206 2.164.631 3.488 3.103 6.03 6.518 6.694 3.607.7 7.087-.77 8.942-3.777 1.244-2.02 1.575-4.222 1.344-6.548-.419-4.224-3.18-7.28-7.36-7.84-3.209-.428-5.988.552-7.966 3.25-1.277 1.74-1.689 3.763-1.684 6.057m-.62 12.521c0 1.31-.017 2.443.01 3.578.009.379-.106.47-.475.466a391.322 391.322 0 0 0-7.371.005c-.48.006-.581-.123-.581-.588.013-15.36.012-30.721.012-46.083 0-1.21.013-2.42-.009-3.63-.007-.357.103-.438.446-.436 2.76.013 5.52.017 8.28-.004.404-.003.446.143.444.485-.01 6.515-.007 13.029-.007 19.545v.286c.053-.007.118.005.142-.02 2.099-2.225 4.73-3.348 7.723-3.686 3.926-.44 7.617.254 10.946 2.46 3.612 2.391 5.808 5.793 6.824 9.951 1.087 4.449.84 8.83-1.05 13.038-2.342 5.218-6.347 8.4-12.018 9.274-3.908.6-7.657.056-10.974-2.316-.858-.614-1.595-1.358-2.342-2.325m57.617-12.142c-.046-2.186-.42-3.595-1.154-4.992-2.986-5.681-11.211-6.103-14.703-.75-1.394 2.135-1.718 4.504-1.365 6.971.993 6.941 8.047 8.88 12.676 6.343 3.238-1.774 4.496-4.707 4.546-7.572m-8.702 17.007c-7.159-.35-12.809-3.243-16.165-9.732-3.36-6.492-2.058-14.585 3.123-19.758 3.28-3.278 7.308-5.046 11.974-5.28 5.426-.275 10.18 1.392 14.045 5.182 3.894 3.818 5.508 8.518 5.006 13.93-.692 7.428-6.394 13.817-14.561 15.326-1.123.207-2.263.283-3.422.332m31.643-30.426c.665-.746 1.256-1.41 1.966-1.948 2.907-2.204 6.16-2.846 9.711-2.168.419.078.528.257.525.672-.02 2.348-.028 4.697.005 7.045.007.506-.158.578-.602.571-1.765-.026-3.533-.068-5.26.448-3.273.982-5.267 3.459-5.51 6.884-.059.84-.088 1.68-.088 2.522.005 5.074-.002 10.147.01 15.22.002.407-.082.54-.517.536a538.115 538.115 0 0 0-8.15 0c-.394.002-.506-.088-.506-.497.012-10.919.014-21.835 0-32.752 0-.433.124-.526.533-.523 2.467.02 4.934.021 7.4-.001.42-.004.5.125.491.514-.027 1.12-.01 2.24-.01 3.477m14.87-3.635c3.219 0 6.351.009 9.483-.01.394-.003.42.252.507.485 2.011 5.405 4.017 10.81 6.026 16.217.604 1.624 1.209 3.249 1.816 4.872.029.08.017.182.18.228.481-1.2.966-2.403 1.448-3.608 2.362-5.915 4.725-11.829 7.084-17.745.102-.257.166-.452.534-.449 3.045.017 6.086.01 9.13.01.066 0 .13.009.261.017-.559 1.255-1.097 2.462-1.632 3.669a143796.49 143796.49 0 0 1-14.515 32.647c-.939 2.115-2.088 4.106-3.639 5.849-2.441 2.743-5.544 4.018-9.194 4.118-2.072.055-4.097-.257-6.113-.686-.32-.069-.413-.204-.411-.526.015-2.253.022-4.505-.004-6.758-.007-.446.137-.465.515-.425 1.688.178 3.375.338 5.077.106 2.297-.314 3.917-1.52 4.929-3.557.458-.92.869-1.862 1.32-2.784.108-.223.058-.398-.024-.597-2.563-6.216-5.126-12.432-7.684-18.648-1.637-3.977-3.269-7.952-4.902-11.928-.06-.144-.114-.291-.192-.497"/></g></g></svg>