<?xml version="1.0" encoding="UTF-8"?>
<svg width="287px" height="86px" viewBox="0 0 287 86" version="1.1" xmlns="http://www.w3.org/2000/svg" xmlns:xlink="http://www.w3.org/1999/xlink">
    <!-- Generator: Sketch 43.1 (39012) - http://www.bohemiancoding.com/sketch -->
    <title>logo</title>
    <desc>Created with Sketch.</desc>
    <defs>
        <polygon id="path-1" points="0 85.7142857 64.2377143 85.7142857 64.2377143 0.185142857 0 0.185142857"></polygon>
    </defs>
    <g id="Page-1" stroke="none" stroke-width="1" fill="none" fill-rule="evenodd">
        <g id="logo">
            <g id="Clipped">
                <mask id="mask-2" fill="white">
                    <use xlink:href="#path-1"></use>
                </mask>
                <g id="a"></g>
                <path d="M16.4914286,31.0388571 C16.4108571,31.1451429 16.344,31.2531429 16.2565714,31.3422857 L12.6994286,34.8942857 C10.3782857,37.212 10.368,40.4142857 12.684,42.7285714 C19.0405714,49.08 25.404,55.4228571 31.752,61.7794286 C32.0314286,62.0588571 32.1651429,62.0777143 32.4548571,61.7862857 C34.7731932,59.440645 37.1075334,57.1108763 39.4577143,54.7971429 C39.8211429,54.4405714 39.8331429,54.2691429 39.4628571,53.9005714 C31.956,46.4314286 24.4662857,38.9468571 16.9714286,31.4657143 C16.884,31.3782857 16.7965714,31.2874286 16.7057143,31.2034286 C16.656,31.1571429 16.5977143,31.1194286 16.4914286,31.0388571 L16.4914286,31.0388571 Z M32.3314286,0.185142857 C32.7188571,0.577714286 33.1028571,0.973714286 33.4937143,1.36285714 L59.3365714,27.1628571 C62.8474286,30.672 64.4931429,34.9165714 64.2051429,39.8588571 C63.9737143,43.8445714 62.448,47.3177143 59.6211429,50.1548571 C52.4262857,57.3771429 45.2005714,64.5685714 37.9782857,71.7634286 C37.715625,71.9979338 37.5710943,72.3372667 37.584,72.6891429 C37.5994286,76.8548571 37.5874286,81.0222857 37.6045714,85.1897143 C37.6045714,85.6165714 37.4845714,85.7142857 37.0731429,85.7125714 C33.7731429,85.6954286 30.4731429,85.692 27.1731429,85.7142857 C26.7102857,85.7177143 26.628,85.5788571 26.6297143,85.1485714 C26.6468571,81 26.6348571,76.8514286 26.6468571,72.7028571 C26.6624832,72.3679175 26.528743,72.0432993 26.2817143,71.8165714 C19.2,64.7605714 12.1337143,57.6857143 5.04514286,50.6348571 C2.39485714,48 0.72,44.8902857 0.150857143,41.1908571 C0.108,40.9165714 0.18,40.6182857 0,40.3697143 L0,37.2702857 C0.113142857,37.1777143 0.0857142857,37.044 0.0994285714,36.924 C0.538285714,33.2674286 2.01942857,30.0942857 4.60114286,27.4662857 C7.21371429,24.8108571 9.86914286,22.1982857 12.504,19.5668571 C14.8817143,17.1942857 18.228,17.1891429 20.5971429,19.5548571 L38.6485714,37.5754286 C41.5354286,40.4588571 44.4291429,43.3371429 47.3057143,46.2325714 C47.604,46.5342857 47.7548571,46.5171429 48.0411429,46.2257143 C49.2462857,44.988 50.4788571,43.7742857 51.7045714,42.5554286 C52.0341724,42.229016 52.3194699,41.860723 52.5531429,41.46 C53.7805714,39.3531429 53.3965714,36.756 51.5914286,34.9542857 C42.6874286,26.0622857 33.7834286,17.172 24.8691429,8.29028571 C24.5811429,8.004 24.5571429,7.85485714 24.8622857,7.55828571 C26.2302857,6.22971429 27.5708571,4.87542857 28.9182857,3.52457143 C30.024,2.41542857 31.1228571,1.29771429 32.2234286,0.185142857 L32.3297143,0.185142857 L32.3314286,0.185142857 Z" id="Shape" fill="#03A65A" fill-rule="nonzero" mask="url(#mask-2)"></path>
            </g>
            <g id="Group" transform="translate(77.142857, 8.571429)" fill-rule="nonzero" fill="#E6E6E6">
                <path d="M10.8085714,34.6234286 C10.8051429,35.8542857 10.9611429,37.0577143 11.4017143,38.2097143 C12.6445714,41.4497143 15.0137143,43.3457143 18.4765714,43.6611429 C21.9531429,43.9782857 24.816,42.7577143 26.6485714,39.684 C28.0611429,37.3114286 28.1914286,34.6954286 27.6137143,32.0862857 C25.9782857,24.72 18.0377143,24.0257143 14.1325714,27.2005714 C11.7737143,29.1205714 10.8411429,31.6748571 10.8068571,34.6234286 M28.4948571,22.0028571 C28.4948571,20.7137143 28.512,19.5514286 28.4862857,18.3925714 C28.4777143,18.0154286 28.5891429,17.9297143 28.9594286,17.9297143 C31.452,17.9468571 33.9445714,17.9502857 36.4371429,17.9297143 C36.8537143,17.9262857 36.9257143,18.0548571 36.9257143,18.4371429 C36.9154286,29.2028571 36.9154286,39.9668571 36.9274286,50.7308571 C36.9274286,51.144 36.8022857,51.2211429 36.4165714,51.2177143 C33.8897143,51.2005714 31.3594286,51.2005714 28.8325714,51.2177143 C28.4571429,51.2194286 28.3525714,51.12 28.3611429,50.7497143 C28.3868571,49.6937143 28.3697143,48.6377143 28.3697143,47.5885714 C28.2325714,47.5251429 28.188,47.6228571 28.1348571,47.6811429 C25.6337143,50.532 22.3885714,51.7851429 18.6702857,51.9822857 C14.8062857,52.1862857 11.2731429,51.228 8.16342857,48.9034286 C4.73828571,46.3405714 2.74628571,42.8657143 1.92685714,38.7462857 C1.06628571,34.4125714 1.404,30.1577143 3.396,26.1462857 C6.14742857,20.6091429 10.6594286,17.6142857 16.8788571,17.2405714 C19.9062857,17.0588571 22.788,17.6142857 25.4125714,19.2068571 C26.5782857,19.9131429 27.5622857,20.8268571 28.4948571,22.0011429 M53.1051429,21.4405714 C54.5125714,19.8685714 56.1102857,18.672 58.0457143,17.9657143 C60.216615,17.1562626 62.5750486,16.9907794 64.8377143,17.4891429 C65.1651429,17.5594286 65.2885714,17.6897143 65.2834286,18.0548571 C65.2645714,20.472 65.2662857,22.8925714 65.2834286,25.3114286 C65.2834286,25.6594286 65.1994286,25.7605714 64.8428571,25.7605714 C63.204,25.7537143 61.5617143,25.6765714 59.9417143,26.0777143 C56.2611429,26.9862857 54.072,29.5782857 53.9177143,33.3685714 C53.7617143,37.2188571 53.8834286,41.0725714 53.8577143,44.9228571 C53.8457143,46.8942857 53.8474286,48.8657143 53.8628571,50.8371429 C53.8662857,51.2057143 53.8182857,51.3685714 53.3828571,51.3634286 C50.6314286,51.3411429 47.88,51.3462857 45.1285714,51.3617143 C44.7462857,51.3634286 44.6622857,51.252 44.6622857,50.8817143 C44.6708571,39.9514286 44.6708571,29.0177143 44.6622857,18.0857143 C44.6622857,17.724 44.7342857,17.5988571 45.1251429,17.6022857 C47.6245714,17.6194286 50.1257143,17.6228571 52.6268571,17.5988571 C53.0571429,17.5954286 53.1205714,17.7462857 53.1137143,18.1217143 C53.0914286,19.2274286 53.1051429,20.3331429 53.1051429,21.4405714 M78.1885714,34.6217143 C78.1765714,35.2388571 78.2554286,36.0137143 78.3942857,36.7851429 C79.0251429,40.2737143 81.4971429,42.816 84.912,43.4794286 C88.5188571,44.1788571 91.9988571,42.7097143 93.8537143,39.7028571 C95.0982857,37.6834286 95.4291429,35.4805714 95.1977143,33.1542857 C94.7794286,28.9302857 92.0177143,25.8754286 87.8382857,25.3148571 C84.6291429,24.8862857 81.8502857,25.8668571 79.872,28.5651429 C78.5948571,30.3051429 78.1834286,32.328 78.1885714,34.6217143 M77.568,47.1428571 C77.568,48.4525714 77.5508571,49.5857143 77.5782857,50.7205714 C77.5868571,51.0994286 77.472,51.1902857 77.1034286,51.1868571 C74.6451429,51.1697143 72.1885714,51.1628571 69.732,51.192 C69.252,51.1971429 69.1508571,51.0685714 69.1508571,50.604 C69.1645714,35.244 69.1628571,19.8822857 69.1628571,4.52057143 C69.1628571,3.31028571 69.1765714,2.1 69.1542857,0.889714286 C69.1474286,0.533142857 69.2571429,0.452571429 69.6,0.454285714 C72.36,0.468 75.12,0.471428571 77.88,0.450857143 C78.2845714,0.447428571 78.3257143,0.593142857 78.324,0.936 C78.3137143,7.45028571 78.3171429,13.9645714 78.3171429,20.4805714 L78.3171429,20.7668571 C78.3702857,20.76 78.4354286,20.772 78.4594286,20.7462857 C80.5577143,18.5211429 83.1891429,17.3982857 86.1822857,17.0605714 C90.108,16.62 93.7988571,17.3142857 97.128,19.5205714 C100.74,21.912 102.936,25.3131429 103.952571,29.472 C105.039429,33.9205714 104.792571,38.3022857 102.901714,42.5091429 C100.56,47.7274286 96.5554286,50.9091429 90.8845714,51.7834286 C86.976,52.3834286 83.2268571,51.84 79.9097143,49.4674286 C79.0525714,48.8537143 78.3154286,48.1097143 77.568,47.1428571 M135.185143,35.0005714 C135.138857,32.8148571 134.765143,31.4057143 134.031429,30.0085714 C131.045143,24.3274286 122.82,23.9057143 119.328,29.2577143 C117.934286,31.3937143 117.610286,33.7628571 117.963429,36.2297143 C118.956,43.1708571 126.010286,45.1097143 130.638857,42.5725714 C133.877143,40.7982857 135.135429,37.8651429 135.185143,35.0005714 M126.483429,52.008 C119.324571,51.6582857 113.674286,48.7645714 110.317714,42.276 C106.957714,35.784 108.260571,27.6908571 113.441143,22.5171429 C116.720571,19.2394286 120.749143,17.472 125.415429,17.2371429 C130.841143,16.9628571 135.594857,18.6291429 139.460571,22.4194286 C143.353714,26.2371429 144.968571,30.9377143 144.466286,36.3497143 C143.773714,43.7777143 138.072,50.1668571 129.905143,51.6754286 C128.782286,51.8828571 127.642286,51.9582857 126.483429,52.008 M158.125714,21.5811429 C158.790857,20.8354286 159.382286,20.172 160.092,19.6337143 C162.999429,17.4291429 166.251429,16.788 169.803429,17.4651429 C170.221714,17.544 170.331429,17.7222857 170.328,18.1371429 C170.307429,20.4857143 170.300571,22.8342857 170.333143,25.1828571 C170.34,25.6885714 170.175429,25.7605714 169.731429,25.7537143 C167.965714,25.728 166.198286,25.6851429 164.472,26.2011429 C161.197714,27.1834286 159.204,29.6605714 158.960571,33.0857143 C158.902286,33.9257143 158.873143,34.7657143 158.873143,35.6074286 C158.878286,40.6817143 158.871429,45.7542857 158.883429,50.8268571 C158.885143,51.2348571 158.801143,51.3668571 158.365714,51.3634286 C155.648571,51.3411429 152.931429,51.3445714 150.216,51.3634286 C149.821714,51.3651429 149.710286,51.276 149.710286,50.8662857 C149.722286,39.948 149.724,29.0314286 149.710286,18.1148571 C149.710286,17.6811429 149.833714,17.5885714 150.243429,17.592 C152.710286,17.6108571 155.177143,17.6125714 157.642286,17.5902857 C158.064,17.5868571 158.142857,17.7154286 158.134286,18.1045714 C158.106857,19.224 158.124,20.3451429 158.124,21.5811429 M172.993714,17.9468571 C176.213143,17.9468571 179.345143,17.9554286 182.477143,17.9365714 C182.871429,17.9331429 182.897143,18.1885714 182.984571,18.4217143 C184.995429,23.8268571 187.001143,29.232 189.010286,34.6388571 C189.613714,36.2622857 190.218857,37.8874286 190.825714,39.5108571 C190.854857,39.5897143 190.842857,39.6925714 191.005714,39.7388571 C191.487429,38.5388571 191.972571,37.3354286 192.454286,36.1302857 C194.816571,30.216 197.178857,24.3017143 199.537714,18.3857143 C199.640571,18.1285714 199.704,17.9331429 200.072571,17.9365714 C203.117143,17.9537143 206.158286,17.9468571 209.202857,17.9468571 C209.268,17.9468571 209.331429,17.9554286 209.463429,17.964 C208.904571,19.2188571 208.366286,20.4257143 207.831429,21.6325714 C202.993714,32.5165714 198.156,43.3988571 193.316571,54.2794286 C192.377143,56.3948571 191.228571,58.3851429 189.677143,60.1285714 C187.236,62.8714286 184.133143,64.1468571 180.483429,64.2462857 C178.410857,64.3011429 176.386286,63.9891429 174.370286,63.5605714 C174.049714,63.492 173.957143,63.3565714 173.958857,63.0342857 C173.974286,60.7817143 173.981143,58.5291429 173.955429,56.2765714 C173.948571,55.8308571 174.092571,55.812 174.469714,55.8514286 C176.158286,56.0297143 177.845143,56.1891429 179.547429,55.9577143 C181.844571,55.644 183.464571,54.4371429 184.476,52.4005714 C184.933714,51.48 185.345143,50.5388571 185.796,49.6165714 C185.904,49.3937143 185.854286,49.2188571 185.772,49.02 C183.209143,42.804 180.646286,36.588 178.088571,30.372 C176.451429,26.3948571 174.819429,22.4194286 173.185714,18.444 C173.125714,18.3 173.072571,18.1525714 172.993714,17.9468571" id="Shape"></path>
            </g>
        </g>
    </g>
</svg>